<svg width="256" height="256" viewBox="0 0 256 256" fill="none" xmlns="http://www.w3.org/2000/svg">
<path d="M31.6457 80.6931C31.2902 76.8384 31.6457 71.5286 32.0633 67.6199C34.0871 48.6755 45.6403 33.6201 60.1859 22.1085C84.4718 2.874 116.135 -4.31867 146.322 2.54185C150.136 3.41696 153.741 4.53527 157.382 5.96722C159.89 6.95391 164.015 9.58438 166.463 9.96281C173.834 11.1032 181.606 9.61317 189.08 10.5536C196.525 11.4904 202.462 14.9667 207.022 20.8755C213.279 28.9854 212.549 37.6656 212.205 47.3155C212.13 49.4097 211.964 54.1009 212.52 56.0357C213.98 61.1116 216.788 66.0584 218.682 71.2294C224.702 87.6647 225.65 103.372 223.349 120.621C219.959 141.045 211.294 159.088 197.896 174.76C185.804 188.904 169.764 201.964 150.628 203.374C125.838 205.2 100.518 191.582 82.3038 175.766C54.5439 151.662 34.5473 117.692 31.6457 80.6931Z" fill="#173944"/>
<path d="M40.6236 80.4935C39.6863 71.1079 42.0092 58.3591 48.4052 51.3171C72.018 25.3203 115.94 50.407 136.43 68.4394C161.853 90.8138 178.097 119.163 180.279 152.864C180.349 173.973 171.029 191.796 148.274 193.587C126.874 195.273 103.33 182.225 87.5927 168.557C62.1546 146.465 43.227 114.519 40.6236 80.4935Z" fill="#FEE576"/>
<path d="M60.4443 60.2306C61.3205 55.109 70.0092 52.6785 74.6893 52.2523C81.4552 51.6358 93.9744 54.2462 99.6287 58.1847C102.605 60.2568 102.79 74.3254 103.543 78.1688C104.372 85.3456 104.531 93.6828 105.118 101.044C105.178 102.777 106.309 108.703 103.925 108.892C100.727 107.551 83.7186 87.2855 80.2897 83.4185L69.312 71.1505C66.9815 68.5509 61.812 63.0822 60.4443 60.2306Z" fill="#FAC516"/>
<path d="M100.029 165.927C99.7925 161.882 108.706 128.155 110.861 126.772C111.705 127.009 112.766 128.114 113.222 128.832C119.322 138.454 125.422 148.164 131.108 158.031C134.511 164.5 139.287 170.714 142.542 177.447C145.311 182.635 143.74 185.415 137.636 184.053C128.883 182.1 103.728 174.41 100.029 165.927Z" fill="#FAC516"/>
<path d="M117.192 126.209C117.236 125.72 117.169 125.864 117.375 125.486C117.508 125.239 117.465 125.233 117.738 125.187C120.802 124.67 158.086 143.271 162.995 146.48C165.148 147.886 167.219 149.386 167.74 152.028C169.069 158.77 165.781 167.072 162.142 172.613C160.599 174.791 158.772 177.2 156.446 178.592C155.331 179.259 153.741 179.756 152.469 179.233C147.695 177.27 118.96 132.014 117.192 126.209Z" fill="#FAC516"/>
<path d="M57.7393 115.444L57.8588 115.136C59.1551 114.559 64.7709 115.778 66.45 116.007C73.2446 116.88 80.0285 117.833 86.8011 118.863C91.6049 119.549 98.8145 119.79 103.135 121.424C103.878 121.705 104.486 122.394 104.787 123.122C106.269 126.707 98.1779 145.515 96.3265 150.196L94.4325 155.668C93.3229 158.8 91.9783 161.796 88.234 159.341C85.6813 157.667 83.6411 155.11 81.604 152.86C73.4303 143.832 66.235 133.96 60.9501 122.947C59.8487 120.656 58.2651 117.921 57.7393 115.444Z" fill="#FAC516"/>
<path d="M49.8565 85.5773C49.4343 81.5025 51.3581 73.3437 53.4716 69.6911C55.1553 66.8781 58.1394 68.6977 59.8959 70.3086C68.6179 78.3064 76.6125 87.1295 85.0616 95.4225C87.4916 97.8083 90.012 100.301 92.2492 102.828C93.8051 104.597 100.739 111.232 99.1182 113.325C98.4021 113.582 97.7213 113.675 96.9621 113.729C90.349 114.195 58.793 109.713 54.8618 106.028C50.9374 102.35 50.2361 90.9303 49.8565 85.5773Z" fill="#FAC516"/>
<path d="M109.113 84.5954C109.041 82.8015 108.989 81.007 108.959 79.2115C108.762 62.2255 110.386 60.356 124.496 71.7299C129.516 75.7769 134.216 79.8368 138.513 84.6946C140.727 87.1822 142.689 89.8851 144.368 92.7629C144.982 93.8627 146.019 95.307 146.175 96.5641C146.264 97.2773 146.051 97.936 145.628 98.5026C145.154 99.1386 144.423 99.5941 143.734 99.9592C141.712 101.03 139.351 101.77 137.233 102.687C132.385 104.784 119.544 111.166 115.334 111.544C114.314 111.635 113.375 111.465 112.579 110.775C109.372 107.991 109.272 89.5823 109.113 84.5954Z" fill="#FAC516"/>
<path d="M118.126 118.093C118.14 118.039 118.144 117.98 118.168 117.929C119.206 115.666 135.378 110.103 138.209 109.2C141.166 108.257 150.899 104.623 153.535 106.164C158.174 108.873 162.745 121.338 164.179 126.573C164.569 128.172 164.956 129.77 165.245 131.391C165.539 133.039 166.266 136.307 164.989 137.668C164.314 138.389 163.084 138.267 162.194 138.147C156.503 137.38 126.866 124.259 121.451 121.018C120.056 120.183 119.122 119.388 118.126 118.093Z" fill="#FAC516"/>
<path d="M63.2197 32.1802C65.3117 28.9476 78.8231 21.5832 82.9255 19.6402C103.923 9.88131 127.686 7.87657 150.014 13.9808C152.816 14.7433 155.446 15.6107 158.158 16.6318C161.036 17.7157 165.092 19.8664 168.033 20.27C176.056 21.4819 186.085 18.6638 193.813 21.54C208.705 27.42 200.755 45.094 202.64 56.3851C203.577 61.9916 207.945 69.7123 209.861 75.4211C217.478 98.1143 215.672 119.861 207.294 141.974C202.372 153.897 197.73 160.859 189.009 170.33C191.896 159.669 191.505 150.131 189.492 139.406C182.547 102.399 159.97 70.5555 129.234 49.3827C109.808 36.0005 86.951 27.8108 63.2197 32.1802Z" fill="#FAC516"/>
<path d="M70.3203 179.92C70.5298 180.113 70.7551 180.35 70.9873 180.62C71.6068 181.341 72.1724 182.175 72.4883 182.699C75.3306 187.42 78.98 193.514 80.999 199.704C83.0234 205.911 83.2888 211.839 79.8887 216.528C77.6624 219.597 74.3226 221.484 70.6396 222.092C66.7006 222.144 63.6231 220.785 61.5127 218.55C59.3722 216.284 58.1153 212.998 58.0928 209.054C58.0942 206.241 58.4929 203.443 59.2764 200.741C60.1023 197.893 62.0026 193.525 64.2646 189.291C66.1119 185.834 68.1311 182.598 69.915 180.406L70.3203 179.92Z" fill="#FAC516" stroke="#173944" stroke-width="3"/>
<path d="M99.739 198.271C103.772 200.192 112.247 217.542 113.129 221.961C114.726 229.969 110.998 235.001 103.543 236.769C95.0738 237.109 89.3293 231.393 89.0241 223.091C88.7568 215.803 94.902 203.476 99.739 198.271Z" fill="#FAC516"/>
<path d="M78.9622 229.263C81.7512 230.597 87.613 242.642 88.2226 245.71C89.327 251.269 86.7488 254.762 81.593 255.99C75.7358 256.226 71.7628 252.258 71.5517 246.494C71.3669 241.435 75.6169 232.877 78.9622 229.263Z" fill="#FAC516"/>
</svg>
