<svg xmlns="http://www.w3.org/2000/svg" width="80" height="80" viewBox="0 0 80 80" fill="none"><path d="M65.6673 28.3987H14.334V55.6694H65.6673V28.3987Z" stroke="#0E1E5B" stroke-width="5" stroke-linecap="round" stroke-linejoin="round"></path><path d="M14.334 66.0967H31.9798" stroke="#0E1E5B" stroke-width="5" stroke-linecap="round" stroke-linejoin="round"></path><path d="M14.334 76.0938H31.9798" stroke="#0E1E5B" stroke-width="5" stroke-linecap="round" stroke-linejoin="round"></path><path d="M43.209 76.0938V66.0967H65.6673V76.0938" stroke="#0E1E5B" stroke-width="5" stroke-linecap="round" stroke-linejoin="round"></path><path d="M28.7715 55.6691L41.4637 41.5684C42.3062 40.6326 43.3425 39.8911 44.5 39.3958C45.6579 38.9001 46.9095 38.6626 48.1684 38.6992C49.4271 38.7358 50.6629 39.0457 51.79 39.6078C52.9168 40.1696 53.9081 40.9701 54.6948 41.9534L65.6673 55.6691" stroke="#0E1E5B" stroke-width="5" stroke-linecap="round" stroke-linejoin="round"></path><path d="M25.5632 41.232C24.6772 41.232 23.959 40.5137 23.959 39.6278C23.959 38.742 24.6772 38.0237 25.5632 38.0237" stroke="#0E1E5B" stroke-width="5"></path><path d="M25.5625 41.232C26.4484 41.232 27.1667 40.5137 27.1667 39.6278C27.1667 38.742 26.4484 38.0237 25.5625 38.0237" stroke="#0E1E5B" stroke-width="5"></path><path d="M3.90625 76.0938V10.3229C3.90625 8.62112 4.58229 6.98901 5.78566 5.78566C6.98901 4.58229 8.62112 3.90625 10.3229 3.90625H69.6771C71.3788 3.90625 73.0109 4.58229 74.2143 5.78566C75.4178 6.98901 76.0938 8.62112 76.0938 10.3229V76.0938" stroke="#0E1E5B" stroke-width="5" stroke-linecap="round" stroke-linejoin="round"></path><path d="M3.9668 17.4265H76.0548" stroke="#0E1E5B" stroke-width="5" stroke-linecap="round" stroke-linejoin="round"></path><path d="M17.8047 3.90625V17.4262" stroke="#0E1E5B" stroke-width="5" stroke-linecap="round" stroke-linejoin="round"></path><path d="M31.707 3.90625V17.4262" stroke="#0E1E5B" stroke-width="5" stroke-linecap="round" stroke-linejoin="round"></path></svg>