<svg xmlns="http://www.w3.org/2000/svg" width="80" height="80" viewBox="0 0 80 80" fill="none"><path fill-rule="evenodd" clip-rule="evenodd" d="M56.3333 28.3333L51.6667 23.6667L58.6667 16.6667L51.6667 9.66667L56.3333 5L63.3333 12L70.3333 5L75 9.66667L68.0833 16.6667L75 23.6667L70.3333 28.3333L63.3333 21.4167L56.3333 28.3333ZM11.9583 68.0417C13.2639 69.3473 14.8333 70 16.6667 70H63.3333C65.1667 70 66.736 69.3473 68.0417 68.0417C69.3473 66.736 70 65.1667 70 63.3333V35H63.3333V63.3333H16.6667V16.6667H45V10H16.6667C14.8333 10 13.2639 10.6528 11.9583 11.9583C10.6528 13.2639 10 14.8333 10 16.6667V63.3333C10 65.1667 10.6528 66.736 11.9583 68.0417ZM30 43.3333L20 56.6667H60L47.5 40L37.5 53.3333L30 43.3333Z" fill="#0E1E5B"></path></svg>