<svg xmlns="http://www.w3.org/2000/svg" width="80" height="80" viewBox="0 0 80 80" fill="none"><path d="M35.1667 76.6666V69.9999H15C13.6667 69.9999 12.5 69.4999 11.5 68.4999C10.5 67.4999 10 66.3333 10 64.9999V14.9999C10 13.6666 10.5 12.4999 11.5 11.4999C12.5 10.4999 13.6667 9.99992 15 9.99992H35.1667V3.33325H40.1667V76.6666H35.1667ZM15 61.4999H35.1667V38.4166L15 61.4999ZM45.1667 69.9999V38.7499L65 61.4999V14.9999H45.1667V9.99992H65C66.3333 9.99992 67.5 10.4999 68.5 11.4999C69.5 12.4999 70 13.6666 70 14.9999V64.9999C70 66.3333 69.5 67.4999 68.5 68.4999C67.5 69.4999 66.3333 69.9999 65 69.9999H45.1667Z" fill="#0E1E5B"></path></svg>