<svg xmlns="http://www.w3.org/2000/svg" width="80" height="80" viewBox="0 0 80 80" fill="none"><path d="M67.1392 21.9077V33.9692C67.1392 36.2905 64.6264 37.7413 62.6162 36.5807C61.6832 36.042 61.1085 35.0466 61.1085 33.9692V24.9231H52.0623C49.7411 24.9231 48.2903 22.4103 49.4509 20.4C49.9895 19.4671 50.9851 18.8924 52.0623 18.8923H64.1238C65.7892 18.8924 67.1392 20.2424 67.1392 21.9077ZM27.9393 55.077H18.8931V46.0308C18.8931 43.7096 16.3803 42.2588 14.37 43.4194C13.4371 43.9581 12.8623 44.9535 12.8623 46.0308V58.0923C12.8623 59.7577 14.2123 61.1078 15.8777 61.1077H27.9393C30.2605 61.1076 31.7113 58.5947 30.5506 56.5845C30.0119 55.6516 29.0165 55.077 27.9393 55.077ZM79.2008 12.8616V67.1385C79.2008 70.4692 76.5007 73.1693 73.17 73.1693H6.83156C3.50075 73.1694 0.800781 70.4693 0.800781 67.1385V12.8616C0.800781 9.53087 3.50084 6.83081 6.83156 6.83081H73.17C76.5007 6.83081 79.2008 9.53087 79.2008 12.8616ZM73.17 67.1385V12.8616H6.83156V67.1385H73.17Z" fill="#0E1E5B"></path></svg>