<svg width="0" height="0" class="hidden">
  <symbol version="1.1" id="race-icon" xmlns="http://www.w3.org/2000/svg" xmlns:xlink="http://www.w3.org/1999/xlink" x="0px" y="0px" xml:space="preserve" viewBox="0 0 106.06 122.88">
    <g>
      <path d="M0,4.16C0,1.86,1.86,0,4.16,0c2.3,0,4.16,1.86,4.16,4.16v6.34h94.62c1.72,0,3.12,1.4,3.12,3.12v66.8 c0,1.72-1.4,3.12-3.12,3.12H8.32v35.18c0,2.3-1.86,4.16-4.16,4.16c-2.3,0-4.16-1.86-4.16-4.16V4.16L0,4.16z M84.42,55.3h15.4V37.73 h-15.4V55.3L84.42,55.3z M82.06,77.3V57.66H64.94V77.3H82.06L82.06,77.3z M82.06,35.37V16.74H64.94v18.63H82.06L82.06,35.37z M43.1,77.3V57.66H25.97V77.3H43.1L43.1,77.3z M45.46,55.3h17.12V37.73H45.46V55.3L45.46,55.3z M43.1,35.37V16.74H25.97v18.63H43.1 L43.1,35.37z M23.62,55.3V37.73H8.43V55.3H23.62L23.62,55.3z"></path>
    </g>
  </symbol>
  <symbol version="1.1" id="close-round-icon" xmlns="http://www.w3.org/2000/svg" xmlns:xlink="http://www.w3.org/1999/xlink" x="0px" y="0px" enable-background="new 0 0 122.881 122.88" xml:space="preserve" viewBox="0 0 122.881 122.88">
    <g>
      <path fill-rule="evenodd" clip-rule="evenodd" d="M61.44,0c33.933,0,61.441,27.507,61.441,61.439 c0,33.933-27.508,61.44-61.441,61.44C27.508,122.88,0,95.372,0,61.439C0,27.507,27.508,0,61.44,0L61.44,0z M81.719,36.226 c1.363-1.363,3.572-1.363,4.936,0c1.363,1.363,1.363,3.573,0,4.936L66.375,61.439l20.279,20.278c1.363,1.363,1.363,3.573,0,4.937 c-1.363,1.362-3.572,1.362-4.936,0L61.44,66.376L41.162,86.654c-1.362,1.362-3.573,1.362-4.936,0c-1.363-1.363-1.363-3.573,0-4.937 l20.278-20.278L36.226,41.162c-1.363-1.363-1.363-3.573,0-4.936c1.363-1.363,3.573-1.363,4.936,0L61.44,56.504L81.719,36.226 L81.719,36.226z"></path>
    </g>
  </symbol>
  <symbol id="avif-file-icon" xmlns="http://www.w3.org/2000/svg" viewBox="0 0 115.28 122.88">
    <defs></defs>
    <title>avif-file</title>
    <path d="M21,57H90.25V37.34H69.59A10.85,10.85,0,0,1,63,34.74a9.41,9.41,0,0,1-2.3-6.17V7.64H8.15a.59.59,0,0,0-.42.18.45.45,0,0,0-.18.42V114.69a.67.67,0,0,0,.18.41.51.51,0,0,0,.42.19h81.5c.19,0,.18-.1.27-.19s.33-.27.33-.41V103.53H21A7.58,7.58,0,0,1,13.47,96V64.55A7.58,7.58,0,0,1,21,57ZM34.23,91.69H26.56L32.45,69H43.67l5.89,22.7H41.89l-.83-3.6h-6l-.83,3.6ZM37.86,76l-1.49,6.36h3.34L38.26,76Zm25.46-7H71l-5.63,22.7H54.75L49.12,69h7.66l3.09,14.42h.33L63.32,69Zm10.57,22.7V69h7.27v22.7Zm25.43-8.43H93.14v8.43H85.88V69h14.89l-.91,5.81H93.14v3h6.18v5.41ZM97.79,57h9.93a7.58,7.58,0,0,1,7.56,7.55V96a7.59,7.59,0,0,1-7.56,7.56H97.79v13.54A5.82,5.82,0,0,1,92,122.88H5.81A5.8,5.8,0,0,1,0,117.07V5.85a5.74,5.74,0,0,1,1.7-4.1A5.83,5.83,0,0,1,5.81.05H64.52a1.21,1.21,0,0,1,.42,0,2.72,2.72,0,0,1,1.75.69h.09A.77.77,0,0,1,67,.88L97,31.24a2.86,2.86,0,0,1,.87,2,2.91,2.91,0,0,1-.09.65V57ZM67.52,28v-19l21.42,21.7H70.19a2.81,2.81,0,0,1-1.89-.78A2.72,2.72,0,0,1,67.52,28Z"></path>
  </symbol>
  <symbol version="1.1" id="jpg-file-icon" xmlns="http://www.w3.org/2000/svg" xmlns:xlink="http://www.w3.org/1999/xlink" x="0px" y="0px" xml:space="preserve" viewBox="0 0 115.28 122.88">
    <g>
      <path d="M25.38,57h64.88V37.34H69.59c-2.17,0-5.19-1.17-6.62-2.6c-1.43-1.43-2.3-4.01-2.3-6.17V7.64l0,0H8.15 c-0.18,0-0.32,0.09-0.41,0.18C7.59,7.92,7.55,8.05,7.55,8.24v106.45c0,0.14,0.09,0.32,0.18,0.41c0.09,0.14,0.28,0.18,0.41,0.18 c22.78,0,58.09,0,81.51,0c0.18,0,0.17-0.09,0.27-0.18c0.14-0.09,0.33-0.28,0.33-0.41v-11.16H25.38c-4.14,0-7.56-3.4-7.56-7.56 V64.55C17.82,60.4,21.22,57,25.38,57L25.38,57z M97.79,57h9.93c4.16,0,7.56,3.41,7.56,7.56v31.42c0,4.15-3.41,7.56-7.56,7.56h-9.93 v13.55c0,1.61-0.65,3.04-1.7,4.1c-1.06,1.06-2.49,1.7-4.1,1.7c-29.44,0-56.59,0-86.18,0c-1.61,0-3.04-0.64-4.1-1.7 c-1.06-1.06-1.7-2.49-1.7-4.1V5.85c0-1.61,0.65-3.04,1.7-4.1c1.06-1.06,2.53-1.7,4.1-1.7h58.72C64.66,0,64.8,0,64.94,0 c0.64,0,1.29,0.28,1.75,0.69h0.09c0.09,0.05,0.14,0.09,0.23,0.18l29.99,30.36c0.51,0.51,0.88,1.2,0.88,1.98 c0,0.23-0.05,0.41-0.09,0.65V57L97.79,57z M67.52,27.97V8.94l21.43,21.7H70.19c-0.74,0-1.38-0.32-1.89-0.78 C67.84,29.4,67.52,28.71,67.52,27.97L67.52,27.97z M41.78,67.82h7.71v13.51c0,2.84-0.25,5-0.75,6.48c-0.5,1.48-1.52,2.73-3.04,3.76 c-1.52,1.03-3.47,1.54-5.85,1.54c-2.51,0-4.46-0.34-5.84-1.02c-1.38-0.68-2.45-1.67-3.2-2.98c-0.75-1.3-1.2-2.92-1.33-4.84l7.33-1 c0.01,1.09,0.11,1.9,0.29,2.43c0.18,0.53,0.49,0.96,0.92,1.29c0.3,0.21,0.71,0.32,1.26,0.32c0.86,0,1.49-0.32,1.9-0.96 c0.4-0.64,0.6-1.71,0.6-3.23V67.82L41.78,67.82z M53.47,67.82h12.79c2.79,0,4.87,0.66,6.26,1.99c1.38,1.33,2.08,3.21,2.08,5.66 c0,2.51-0.76,4.48-2.27,5.9c-1.51,1.42-3.82,2.13-6.93,2.13h-4.22v9.21h-7.71V67.82L53.47,67.82z M61.19,78.45h1.89 c1.49,0,2.54-0.26,3.15-0.78c0.6-0.52,0.9-1.18,0.9-1.98c0-0.78-0.26-1.44-0.79-1.99c-0.52-0.54-1.51-0.82-2.95-0.82h-2.2V78.45 L61.19,78.45z M90.02,83.7v-5.18h11.88v10.58c-2.28,1.55-4.29,2.61-6.03,3.17c-1.75,0.56-3.82,0.84-6.22,0.84 c-2.95,0-5.36-0.5-7.22-1.51c-1.86-1-3.3-2.5-4.33-4.49c-1.03-1.99-1.53-4.27-1.53-6.85c0-2.72,0.56-5.07,1.68-7.08 c1.12-2,2.76-3.53,4.92-4.57c1.69-0.81,3.96-1.2,6.81-1.2c2.75,0,4.8,0.25,6.16,0.75c1.37,0.5,2.5,1.27,3.39,2.32 c0.9,1.05,1.58,2.37,2.03,3.98l-7.4,1.33c-0.31-0.94-0.82-1.67-1.55-2.17c-0.73-0.5-1.66-0.75-2.79-0.75 c-1.68,0-3.02,0.59-4.03,1.75c-1,1.17-1.5,3.02-1.5,5.55c0,2.69,0.5,4.61,1.52,5.76c1.01,1.15,2.42,1.73,4.23,1.73 c0.86,0,1.67-0.12,2.46-0.37c0.78-0.25,1.67-0.67,2.68-1.26V83.7H90.02L90.02,83.7z"></path>
    </g>
  </symbol>
  <symbol version="1.1" id="png-file-icon" xmlns="http://www.w3.org/2000/svg" xmlns:xlink="http://www.w3.org/1999/xlink" x="0px" y="0px" xml:space="preserve" viewBox="0 0 115.28 122.88">
    <g>
      <path d="M25.38,57h64.88V37.34H69.59c-2.17,0-5.19-1.17-6.62-2.6c-1.43-1.43-2.3-4.01-2.3-6.17V7.64l0,0H8.15 c-0.18,0-0.32,0.09-0.41,0.18C7.59,7.92,7.55,8.05,7.55,8.24v106.45c0,0.14,0.09,0.32,0.18,0.41c0.09,0.14,0.28,0.18,0.41,0.18 c22.78,0,58.09,0,81.51,0c0.18,0,0.17-0.09,0.27-0.18c0.14-0.09,0.33-0.28,0.33-0.41v-11.16H25.38c-4.14,0-7.56-3.4-7.56-7.56 V64.55C17.82,60.4,21.22,57,25.38,57L25.38,57z M30.55,68.64h12.14c2.65,0,4.63,0.63,5.95,1.89c1.31,1.26,1.97,3.05,1.97,5.38 c0,2.39-0.72,4.26-2.16,5.6c-1.44,1.35-3.63,2.02-6.58,2.02h-4v8.75h-7.33V68.64L30.55,68.64z M37.87,78.74h1.8 c1.42,0,2.41-0.25,2.99-0.74c0.57-0.49,0.86-1.12,0.86-1.88c0-0.74-0.25-1.37-0.75-1.89c-0.49-0.52-1.43-0.78-2.81-0.78h-2.09 V78.74L37.87,78.74z M52.89,68.64h6.81l8.86,13.05V68.64h6.9v23.63h-6.9L59.75,79.3v12.97h-6.86V68.64L52.89,68.64z M90.6,83.73 v-4.92h11.29v10.05c-2.16,1.47-4.07,2.48-5.73,3.01c-1.66,0.53-3.63,0.8-5.91,0.8c-2.81,0-5.09-0.48-6.86-1.44 c-1.77-0.95-3.14-2.38-4.11-4.27c-0.97-1.89-1.46-4.06-1.46-6.51c0-2.58,0.53-4.82,1.6-6.73c1.06-1.9,2.62-3.35,4.67-4.34 c1.6-0.76,3.76-1.14,6.46-1.14c2.61,0,4.56,0.24,5.85,0.71c1.3,0.47,2.37,1.2,3.22,2.2c0.85,1,1.5,2.25,1.93,3.78l-7.03,1.27 c-0.29-0.9-0.78-1.58-1.47-2.06c-0.69-0.48-1.57-0.71-2.65-0.71c-1.59,0-2.87,0.56-3.82,1.67c-0.95,1.11-1.42,2.87-1.42,5.27 c0,2.55,0.48,4.38,1.44,5.47c0.96,1.09,2.3,1.64,4.02,1.64c0.81,0,1.59-0.12,2.33-0.35c0.74-0.24,1.58-0.64,2.54-1.2v-2.21H90.6 L90.6,83.73z M97.79,57h9.93c4.16,0,7.56,3.41,7.56,7.56v31.42c0,4.15-3.41,7.56-7.56,7.56h-9.93v13.55c0,1.61-0.65,3.04-1.7,4.1 c-1.06,1.06-2.49,1.7-4.1,1.7c-29.44,0-56.59,0-86.18,0c-1.61,0-3.04-0.64-4.1-1.7c-1.06-1.06-1.7-2.49-1.7-4.1V5.85 c0-1.61,0.65-3.04,1.7-4.1c1.06-1.06,2.53-1.7,4.1-1.7h58.72C64.66,0,64.8,0,64.94,0c0.64,0,1.29,0.28,1.75,0.69h0.09 c0.09,0.05,0.14,0.09,0.23,0.18l29.99,30.36c0.51,0.51,0.88,1.2,0.88,1.98c0,0.23-0.05,0.41-0.09,0.65V57L97.79,57z M67.52,27.97 V8.94l21.43,21.7H70.19c-0.74,0-1.38-0.32-1.89-0.78C67.84,29.4,67.52,28.71,67.52,27.97L67.52,27.97z"></path>
    </g>
  </symbol>
  <symbol id="webp-file-icon" xmlns="http://www.w3.org/2000/svg" viewBox="0 0 115.28 122.88">
    <defs></defs>
    <title>webp-file</title>
    <path d="M21,57H90.25V37.34H69.59A10.85,10.85,0,0,1,63,34.74a9.41,9.41,0,0,1-2.3-6.17V7.64H8.15a.59.59,0,0,0-.42.18.45.45,0,0,0-.18.42V114.69a.67.67,0,0,0,.18.41.51.51,0,0,0,.42.19h81.5c.19,0,.18-.1.27-.19s.33-.27.33-.41V103.53H21A7.58,7.58,0,0,1,13.47,96V64.55A7.58,7.58,0,0,1,21,57ZM44.63,70.07H51.5L48.28,90.6H39.7l-1.51-7.55H37.8L36.32,90.6H27.74L24.52,70.07h6.87l1.54,11.46h.2L35.5,70.07h5l2.34,11.46h.19l1.58-11.46ZM66.28,82.85H59.71v2.5h8.05V90.6H53.14V70.07H67.59l-.82,5.26H59.71v2.76h6.57v4.76Zm4.27,7.75V70.07H81.19c2,0,3.38.38,4.23,1.15a4.31,4.31,0,0,1,1.26,3.35,6.13,6.13,0,0,1-.8,3.4,3.68,3.68,0,0,1-2.16,1.56v.2c2.65.46,4,2.26,4,5.42a5.82,5.82,0,0,1-1.31,4,5.14,5.14,0,0,1-4,1.49Zm9.13-8.45h-3.1V86h3.07c.92,0,1.38-.83,1.38-1.94s-.45-1.95-1.35-1.95Zm-.49-7.85H76.58v3.6h2.58c.83,0,1.25-.78,1.25-1.8s-.41-1.8-1.22-1.8Zm21.65,11.34H96.57v5H90V70.07h10.35q7.07,0,7.06,7.59,0,4.17-1.84,6.17a5.38,5.38,0,0,1-1.9,1.29,7.11,7.11,0,0,1-2.83.52ZM96.57,74.78v5.88h1.51a4.57,4.57,0,0,0,1.73-.25c.36-.16.54-.54.54-1.13V76.16c0-.59-.18-1-.54-1.13a4.54,4.54,0,0,0-1.73-.25ZM97.79,57h9.93a7.58,7.58,0,0,1,7.56,7.55V96a7.59,7.59,0,0,1-7.56,7.56H97.79v13.54A5.82,5.82,0,0,1,92,122.88H5.81A5.8,5.8,0,0,1,0,117.07V5.85a5.74,5.74,0,0,1,1.7-4.1A5.83,5.83,0,0,1,5.81.05H64.52a1.21,1.21,0,0,1,.42,0,2.72,2.72,0,0,1,1.75.69h.09A.77.77,0,0,1,67,.88L97,31.24a2.86,2.86,0,0,1,.87,2,2.91,2.91,0,0,1-.09.65V57ZM67.52,28v-19l21.42,21.7H70.19a2.81,2.81,0,0,1-1.89-.78A2.72,2.72,0,0,1,67.52,28Z"></path>
  </symbol>
  <symbol version="1.1" id="check-mark-circle-icon" xmlns="http://www.w3.org/2000/svg" xmlns:xlink="http://www.w3.org/1999/xlink" x="0px" y="0px" enable-background="new 0 0 122.881 122.88" xml:space="preserve" viewBox="0 0 122.881 122.88">
    <g>
      <path fill-rule="evenodd" clip-rule="evenodd" d="M61.44,0c33.933,0,61.441,27.507,61.441,61.439 c0,33.933-27.508,61.44-61.441,61.44C27.508,122.88,0,95.372,0,61.439C0,27.507,27.508,0,61.44,0L61.44,0z M34.106,67.678 l-0.015-0.014c-0.785-0.718-1.207-1.685-1.256-2.669c-0.049-0.982,0.275-1.985,0.984-2.777c0.01-0.011,0.019-0.021,0.029-0.031 c0.717-0.784,1.684-1.207,2.668-1.256c0.989-0.049,1.998,0.28,2.792,0.998l12.956,11.748l31.089-32.559v0 c0.74-0.776,1.723-1.18,2.719-1.204c0.992-0.025,1.994,0.329,2.771,1.067v0.001c0.777,0.739,1.18,1.724,1.205,2.718 c0.025,0.993-0.33,1.997-1.068,2.773L55.279,81.769c-0.023,0.024-0.048,0.047-0.073,0.067c-0.715,0.715-1.649,1.095-2.598,1.13 c-0.974,0.037-1.963-0.293-2.744-1L34.118,67.688L34.106,67.678L34.106,67.678L34.106,67.678z"></path>
    </g>
  </symbol>
  <symbol version="1.1" id="data-backup-icon" xmlns="http://www.w3.org/2000/svg" xmlns:xlink="http://www.w3.org/1999/xlink" x="0px" y="0px" xml:space="preserve" viewBox="0 0 106.46 122.88">
    <g>
      <path d="M27.04,0h51.17c10.61,0,18.1,8.75,19.28,19.28l7.02,62.23c0.45,3.97,0.96,7.96,1.35,11.93 c0.27,2.71,0.46,5.21,0.54,7.53c0.14,3.85-0.02,7.15-0.63,10c-0.01,0.05-0.03,0.11-0.04,0.16c-0.56,6.55-6.1,11.75-12.8,11.75 H13.13c-3.62,0-6.89-1.51-9.24-3.94c-3.77-3.91-3.57-7.46-3.72-12.13c-0.08-2.33-0.16-4.83-0.18-7.34 c-0.04-5.8,0.43-9.6,1.02-15.28l6.74-64.91C8.85,8.73,16.44,0,27.04,0L27.04,0L27.04,0z M28.5,27.2l-0.09,17.34l17.34,0.09 l2.04,0.01l-1.44-1.46l-5.03-5.08c0.34-0.32,0.68-0.63,1.05-0.93c0.48-0.39,0.98-0.75,1.5-1.09l0,0c2.67-1.72,5.85-2.71,9.26-2.7h0 v0c4.67,0.02,8.9,1.94,11.95,5.02c3.05,3.08,4.93,7.32,4.9,11.99l0,0v0.02h0c-0.02,4.68-1.94,8.9-5.02,11.95 c-3.08,3.05-7.32,4.93-11.99,4.9v0h-0.04v0c-1.63-0.01-3.26-0.25-4.82-0.73l0,0c-0.86-0.26-1.71-0.6-2.52-0.99 c-4.13-2.02-7.32-5.69-8.72-10.14l-0.19-0.59l-10.41-0.04l0.2,1.02l0,0.03v0c0.34,1.7,0.87,3.37,1.53,4.97v0 c0.66,1.57,1.48,3.09,2.42,4.51c4.83,7.28,13.09,12.1,22.48,12.14h0v0c7.49,0.04,14.29-2.97,19.21-7.85v0 c4.92-4.88,8-11.64,8.03-19.12h0v-0.02h0c0.04-7.49-2.97-14.28-7.85-19.21l0,0c-4.87-4.92-11.63-7.99-19.11-8.03v0h-0.03v0 c-3.85-0.02-7.51,0.77-10.83,2.2c-0.54,0.23-1.07,0.48-1.59,0.75c-2.43,1.24-4.64,2.83-6.57,4.71l-4.23-4.26l-1.44-1.46L28.5,27.2 L28.5,27.2L28.5,27.2L28.5,27.2z M102.95,102.41c0-0.74-0.02-1.51-0.05-2.3c-0.13-3.45-0.51-6.46-1.04-11.02 c-0.87-0.34-1.81-0.52-2.79-0.52H7.46c-1.23,0-2.39,0.29-3.42,0.8c-0.56,3.9-0.56,7.77-0.45,12.36c2.33-3.32,6.18-4.53,10.52-4.53 h77.87C96.47,97.2,100.62,98.59,102.95,102.41L102.95,102.41z M14.96,107.86h19.74v7.01H14.96V107.86L14.96,107.86L14.96,107.86z"></path>
    </g>
  </symbol>
  <symbol version="1.1" id="image-file-icon" xmlns="http://www.w3.org/2000/svg" xmlns:xlink="http://www.w3.org/1999/xlink" x="0px" y="0px" xml:space="preserve" viewBox="0 0 102.55 122.88">
    <g>
      <path d="M102.55,122.88H0V0h77.66l24.89,26.44L102.55,122.88L102.55,122.88z M29.82,45.51c4.33,0,7.84,3.5,7.84,7.83 c0,4.32-3.51,7.83-7.84,7.83c-4.32,0-7.83-3.51-7.83-7.83C21.99,49.01,25.5,45.51,29.82,45.51L29.82,45.51z M62.71,75.27 l14.02-24.24l2.07-3.57l1.52,3.84l9.45,44.84h-75.3v-9.12l2.87-0.1l5.26-0.27l6.06-14.81l3.77,0.2l2.84,9.98l6.92,0l8-20.59 l1.43-3.69l2.12,3.33L62.71,75.27L62.71,75.27L62.71,75.27z M96.13,115.98V32.36H73.45V5.91H6.51v110.07H96.13L96.13,115.98 L96.13,115.98z"></path>
    </g>
  </symbol>
  <symbol version="1.1" id="ban-sign-icon" xmlns="http://www.w3.org/2000/svg" xmlns:xlink="http://www.w3.org/1999/xlink" x="0px" y="0px" enable-background="new 0 0 122.88 122.88" xml:space="preserve" viewBox="0 0 122.88 122.88">
    <g>
      <path fill-rule="evenodd" clip-rule="evenodd" d="M61.44,0c33.926,0,61.44,27.514,61.44,61.44c0,33.926-27.514,61.439-61.44,61.439 C27.513,122.88,0,95.366,0,61.44C0,27.514,27.513,0,61.44,0L61.44,0z M98.505,37.049L37.051,98.503 c6.999,4.617,15.379,7.307,24.389,7.307c24.5,0,44.369-19.869,44.369-44.369C105.809,52.431,103.119,44.05,98.505,37.049 L98.505,37.049L98.505,37.049z M24.378,85.829l61.453-61.454c-6.997-4.615-15.381-7.304-24.391-7.304 c-24.5,0-44.369,19.87-44.369,44.369C17.072,70.449,19.761,78.83,24.378,85.829L24.378,85.829L24.378,85.829z"></path>
    </g>
  </symbol>
  <symbol xmlns="http://www.w3.org/2000/svg" shape-rendering="geometricPrecision" text-rendering="geometricPrecision" image-rendering="optimizeQuality" fill-rule="evenodd" clip-rule="evenodd" viewBox="0 0 399 512.34" id="combine-left-right-outline-icon">
    <path fill-rule="nonzero" d="m0 84.87.03-.01c0-4.73 3.84-8.57 8.58-8.57h223.02V8.59c.02-1.96.69-3.94 2.05-5.55 3.06-3.62 8.48-4.07 12.1-1.01l150.06 127.4c.4.33.77.69 1.11 1.1 3.06 3.62 2.61 9.04-1.01 12.1L246.21 269.75a8.584 8.584 0 0 1-5.97 2.41 8.61 8.61 0 0 1-8.61-8.61v-67.67H119.62v32.96c-.03 2.42-1.04 4.83-3.03 6.52L14.65 322.62a8.543 8.543 0 0 1-6.04 2.48c-4.75 0-8.61-3.85-8.61-8.6V84.87zm399 342.6-.03.01c0 4.73-3.84 8.57-8.58 8.57H167.37v67.71a8.696 8.696 0 0 1-2.05 5.54c-3.06 3.62-8.48 4.07-12.1 1.01L3.16 382.91c-.4-.33-.77-.69-1.11-1.09-3.06-3.62-2.61-9.05 1.01-12.11L152.79 242.6a8.584 8.584 0 0 1 5.97-2.41c4.75 0 8.61 3.85 8.61 8.6v67.67h112.01V283.5a8.703 8.703 0 0 1 3.03-6.52l101.94-87.26a8.604 8.604 0 0 1 6.04-2.48 8.61 8.61 0 0 1 8.61 8.61v231.62zm-17.21-8.57V214.52l-85.2 72.91v37.64a8.6 8.6 0 0 1-8.6 8.6H158.76a8.6 8.6 0 0 1-8.6-8.6v-57.7L21.88 376.27l128.28 108.91v-57.71a8.6 8.6 0 0 1 8.6-8.6l223.03.03zM17.21 93.44v204.39l85.2-72.92v-37.63c0-4.76 3.85-8.61 8.6-8.61h129.23a8.61 8.61 0 0 1 8.61 8.61v57.7l128.27-108.91L248.85 27.16v57.71c0 4.75-3.86 8.6-8.61 8.6l-223.03-.03z"></path>
  </symbol>
  <symbol xmlns="http://www.w3.org/2000/svg" shape-rendering="geometricPrecision" text-rendering="geometricPrecision" image-rendering="optimizeQuality" fill-rule="evenodd" clip-rule="evenodd" viewBox="0 0 512 512" id="play-button-round-icon">
    <path fill-rule="nonzero" d="M255.99 0c70.68 0 134.7 28.66 181.02 74.98C483.33 121.3 512 185.31 512 256c0 70.68-28.67 134.69-74.99 181.01C390.69 483.33 326.67 512 255.99 512S121.3 483.33 74.98 437.01C28.66 390.69 0 326.68 0 256c0-70.67 28.66-134.7 74.98-181.02C121.3 28.66 185.31 0 255.99 0zm77.4 269.81c13.75-8.88 13.7-18.77 0-26.63l-110.27-76.77c-11.19-7.04-22.89-2.9-22.58 11.72l.44 154.47c.96 15.86 10.02 20.21 23.37 12.87l109.04-75.66zm79.35-170.56c-40.1-40.1-95.54-64.92-156.75-64.92-61.21 0-116.63 24.82-156.74 64.92-40.1 40.11-64.92 95.54-64.92 156.75 0 61.22 24.82 116.64 64.92 156.74 40.11 40.11 95.53 64.93 156.74 64.93 61.21 0 116.65-24.82 156.75-64.93 40.11-40.1 64.93-95.52 64.93-156.74 0-61.22-24.82-116.64-64.93-156.75z"></path>
  </symbol>
  <symbol id="open-folder-outline-icon" xmlns="http://www.w3.org/2000/svg" xml:space="preserve" version="1.1" shape-rendering="geometricPrecision" text-rendering="geometricPrecision" image-rendering="optimizeQuality" fill-rule="evenodd" clip-rule="evenodd"
  viewBox="0 0 512 347.28"
  xmlns:xlink="http://www.w3.org/1999/xlink"
  xmlns:xodm="http://www.corel.com/coreldraw/odm/2003">
  <g>
    <path fill-rule="nonzero" d="M121.35 118.09l260.64 0 0 -31.3c0.73,-7.76 -4.67,-9.69 -11.24,-9.98 -3.77,-0.18 -7.97,-0.2 -11.76,-0.01l-150.17 0c-36.03,0 -43.17,-19.04 -49.96,-37.13 -3.87,-10.32 -7.56,-20.17 -22.65,-20.17l-104.38 0c-6.76,0 -12.33,5.57 -12.33,12.33l0 253.04 61.44 -139.95c6.5,-14.82 24.13,-26.83 40.41,-26.83zm280.14 0l86.05 0c19.11,0 29.72,16.28 21.83,34.29l0.03 0.01 -73.77 168.06c-6.5,14.83 -24.14,26.83 -40.41,26.83l-366.19 0c-7.65,0 -13.84,-2.56 -18.08,-6.74 -6.2,-5.19 -10.95,-17.13 -10.95,-25.05l0 -283.66c0,-17.52 14.31,-31.83 31.83,-31.83l104.38 0c28.52,0 34.55,16.06 40.86,32.89 4.46,11.89 9.15,24.4 31.75,24.4 51.2,0 102.48,0.33 153.67,0.02 3.05,-0.03 6.18,-0.06 9.1,0.07 16.41,0.76 30.82,5.4 29.88,29.41l0.02 31.3zm85.97 19.05l-366.19 0c-8.66,0 -19,7.42 -22.44,15.25l-73.77 168.06 -0.03 -0.01c-2.05,4.68 -1.46,7.8 4.07,7.8l366.2 0c8.66,0 18.99,-7.43 22.43,-15.26l73.77 -168.06c0.07,0.03 4.09,-7.78 -4.04,-7.78z"/>
  </g>
  </symbol>
  <symbol version="1.1" id="exclamation-triangle-line-icon" xmlns="http://www.w3.org/2000/svg" xmlns:xlink="http://www.w3.org/1999/xlink" x="0px" y="0px" enable-background="new 0 0 122.88 98.023" xml:space="preserve" viewBox="0 0 122.88 98.023">
    <g>
      <path d="M58.268,81.725c-0.169-0.405-0.253-0.843-0.253-1.309c0-0.467,0.084-0.904,0.253-1.31c0.167-0.403,0.418-0.772,0.752-1.105 V78h0.001l0.001-0.001c0.333-0.333,0.703-0.585,1.105-0.753c0.406-0.168,0.843-0.253,1.31-0.253c0.47,0,0.908,0.085,1.315,0.253 c0.397,0.165,0.762,0.41,1.091,0.736c0.006,0.005,0.012,0.011,0.018,0.017c0.334,0.333,0.584,0.702,0.753,1.107 s0.254,0.843,0.254,1.31c0,0.466-0.085,0.903-0.254,1.309c-0.168,0.404-0.419,0.773-0.753,1.106 c-0.335,0.336-0.706,0.59-1.112,0.76c-0.405,0.169-0.843,0.255-1.312,0.255c-0.466,0-0.903-0.086-1.307-0.256 c-0.396-0.166-0.761-0.413-1.091-0.74c-0.006-0.005-0.012-0.011-0.019-0.018C58.687,82.499,58.436,82.13,58.268,81.725 L58.268,81.725z M63.44,5.113c-0.166-0.268-0.38-0.465-0.643-0.593c-0.336-0.164-0.789-0.245-1.358-0.245s-1.021,0.081-1.357,0.245 c-0.263,0.128-0.478,0.326-0.643,0.593c-0.015,0.024-0.03,0.048-0.046,0.071L5.731,89.359h0c-0.302,0.489-0.566,1.057-0.795,1.704 c-0.243,0.692-0.443,1.466-0.6,2.322c-0.023,0.125-0.04,0.246-0.05,0.362h114.307c-0.01-0.116-0.026-0.237-0.05-0.362 c-0.157-0.856-0.356-1.63-0.6-2.322c-0.229-0.647-0.493-1.215-0.795-1.704l-0.011-0.018L63.458,5.138L63.44,5.113L63.44,5.113 L63.44,5.113z M64.651,0.679c1.006,0.489,1.809,1.22,2.413,2.197v0l53.663,84.175c0.016,0.023,0.031,0.047,0.046,0.071 c0.468,0.756,0.865,1.602,1.195,2.539c0.314,0.893,0.569,1.878,0.768,2.956c0.097,0.52,0.144,0.98,0.144,1.385 c0,0.98-0.24,1.811-0.717,2.488c-0.549,0.779-1.327,1.264-2.33,1.449c-0.3,0.056-0.59,0.084-0.872,0.084H3.919 c-0.282,0-0.572-0.028-0.872-0.084c-1.003-0.186-1.782-0.67-2.33-1.449C0.241,95.813,0,94.982,0,94.002 c0-0.404,0.048-0.865,0.145-1.385c0.198-1.078,0.453-2.063,0.768-2.956c0.33-0.938,0.728-1.783,1.195-2.539l0.001,0.001 l0.016-0.026L55.805,2.894l0.011-0.018c0.604-0.977,1.407-1.708,2.413-2.197C59.162,0.226,60.231,0,61.44,0 C62.649,0,63.718,0.226,64.651,0.679L64.651,0.679z M63.563,72.619c-0.004,0.805-0.57,1.313-1.295,1.531 c-0.263,0.079-0.546,0.119-0.827,0.119s-0.564-0.04-0.828-0.119c-0.724-0.218-1.291-0.727-1.295-1.531l-2.72-35.558 c0-0.008-0.001-0.016-0.001-0.024l0,0c0-0.871,1.297-1.399,2.957-1.605c0.597-0.074,1.242-0.112,1.887-0.112 s1.29,0.038,1.887,0.112c1.66,0.207,2.956,0.735,2.956,1.605c0,0.015-0.001,0.028-0.002,0.042L63.563,72.619L63.563,72.619z"></path>
    </g>
  </symbol>
  <symbol xmlns="http://www.w3.org/2000/svg" shape-rendering="geometricPrecision" text-rendering="geometricPrecision" image-rendering="optimizeQuality" fill-rule="evenodd" clip-rule="evenodd" viewBox="0 0 509 511.54" id="popup-link-icon">
    <path fill-rule="nonzero" d="M447.19 347.03c0-17.06 13.85-30.91 30.91-30.91 17.05 0 30.9 13.85 30.9 30.91v87.82c0 21.08-8.63 40.29-22.51 54.18-13.88 13.88-33.09 22.51-54.18 22.51H76.69c-21.09 0-40.3-8.63-54.18-22.51C8.63 475.14 0 455.93 0 434.85V76.69c0-21.09 8.63-40.3 22.51-54.18C36.39 8.63 55.6 0 76.69 0h86.98c17.06 0 30.9 13.85 30.9 30.9 0 17.06-13.84 30.91-30.9 30.91H76.69c-4.07 0-7.82 1.69-10.51 4.37-2.68 2.69-4.37 6.44-4.37 10.51v358.16c0 4.06 1.69 7.82 4.37 10.5 2.69 2.68 6.44 4.38 10.51 4.38h355.62c4.07 0 7.82-1.7 10.51-4.38 2.68-2.68 4.37-6.44 4.37-10.5v-87.82zm0-243.56L308.15 244.28c-11.91 12.12-31.45 12.28-43.56.37-12.11-11.91-12.28-31.45-.37-43.56L401.77 61.81H309.7c-17.06 0-30.9-13.85-30.9-30.91 0-17.05 13.84-30.9 30.9-30.9h168.4C495.15 0 509 13.85 509 30.9v165.04c0 17.06-13.85 30.9-30.9 30.9-17.06 0-30.91-13.84-30.91-30.9v-92.47z"></path>
  </symbol>
  <symbol version="1.1" id="question-mark-round-icon" xmlns="http://www.w3.org/2000/svg" xmlns:xlink="http://www.w3.org/1999/xlink" x="0px" y="0px" xml:space="preserve" viewBox="0 0 122.88 122.88">
    <g>
      <path d="M122.88,61.44C122.88,27.51,95.37,0,61.44,0C27.51,0,0,27.51,0,61.44c0,33.93,27.51,61.44,61.44,61.44 C95.37,122.88,122.88,95.37,122.88,61.44L122.88,61.44z M68.79,74.58H51.3v-1.75c0-2.97,0.32-5.39,1-7.25 c0.68-1.87,1.68-3.55,3.01-5.1c1.34-1.54,4.35-4.23,9.01-8.11c2.48-2.03,3.73-3.88,3.73-5.56c0-1.71-0.51-3.01-1.5-3.95 c-1-0.93-2.51-1.4-4.54-1.4c-2.19,0-3.98,0.73-5.4,2.16c-1.43,1.44-2.34,3.97-2.74,7.56l-17.88-2.22c0.61-6.57,3-11.86,7.15-15.85 c4.17-4.02,10.55-6.01,19.14-6.01c6.7,0,12.1,1.4,16.21,4.19c5.6,3.78,8.38,8.82,8.38,15.1c0,2.62-0.73,5.14-2.16,7.56 c-1.44,2.44-4.39,5.39-8.85,8.88c-3.09,2.48-5.05,4.44-5.86,5.93C69.19,70.24,68.79,72.19,68.79,74.58L68.79,74.58z M50.68,79.25 h18.76v16.53H50.68V79.25L50.68,79.25z"></path>
    </g>
  </symbol>
  <symbol version="1.1" id="repeat-icon" xmlns="http://www.w3.org/2000/svg" xmlns:xlink="http://www.w3.org/1999/xlink" x="0px" y="0px" viewBox="0 0 118.307 122.88" enable-background="new 0 0 118.307 122.88" xml:space="preserve"><g><path d="M10.03,35.673c2.245-10.496,7.201-19.176,14.246-25.362C32.504,3.086,43.498-0.674,56.271,0.1 c1.916,0.113,3.377,1.758,3.265,3.674c-0.113,1.916-1.757,3.378-3.673,3.265C44.988,6.379,35.71,9.509,28.848,15.535 c-6.483,5.693-10.883,14.028-12.512,24.258l0.639,0.264l10.389-7.172c1.425-0.986,3.38-0.63,4.367,0.795 c0.986,1.426,0.63,3.381-0.795,4.366l-16.557,11.43c-1.425,0.986-3.38,0.63-4.366-0.795c-0.062-0.089-0.118-0.18-0.169-0.272 L9.84,48.409L0.39,31.146c-0.836-1.52-0.282-3.431,1.238-4.267c1.52-0.836,3.43-0.282,4.266,1.238L10.03,35.673L10.03,35.673z M99.032,23.108l-0.206,0.159l1.016,12.583c0.142,1.728-1.145,3.243-2.872,3.384c-1.727,0.142-3.242-1.145-3.384-2.872 L91.967,16.31c-0.142-1.728,1.144-3.243,2.871-3.384c0.108-0.009,0.215-0.013,0.32-0.011l0.001-0.002l19.675,0.446 c1.734,0.036,3.112,1.471,3.076,3.206c-0.035,1.734-1.471,3.111-3.206,3.075l-9.65-0.219c3.769,4.437,6.799,9.422,9.01,14.762 c2.775,6.698,4.243,13.922,4.243,21.281c0,3.63-0.358,7.25-1.064,10.812c-0.7,3.535-1.755,7.021-3.153,10.409 c-0.729,1.773-2.757,2.62-4.53,1.891c-1.773-0.729-2.619-2.757-1.891-4.529c1.207-2.924,2.125-5.974,2.745-9.104 c0.616-3.104,0.928-6.279,0.928-9.478c0-6.476-1.279-12.804-3.698-18.643C105.583,31.85,102.684,27.207,99.032,23.108 L99.032,23.108z M72.658,109.86c-5.729,1.047-11.558,1.181-17.277,0.427c-7.172-0.943-14.162-3.288-20.552-6.978l-0.01-0.006 l-0.003,0.006c-3.14-1.813-6.097-3.934-8.832-6.328c-2.73-2.392-5.223-5.045-7.437-7.923c-1.172-1.519-0.892-3.699,0.625-4.871 s3.699-0.892,4.871,0.626c1.948,2.533,4.131,4.857,6.512,6.943c2.377,2.082,4.97,3.939,7.743,5.54l-0.003,0.006 c5.588,3.225,11.705,5.274,17.983,6.101c5.35,0.705,10.824,0.517,16.196-0.593l-0.035-0.264l-11.405-5.411 c-1.566-0.741-2.236-2.612-1.495-4.179c0.741-1.567,2.613-2.236,4.18-1.495l18.177,8.624c1.566,0.741,2.235,2.612,1.494,4.18 c-0.046,0.097-0.097,0.191-0.15,0.282l0.002,0.001l-10.225,16.816c-0.898,1.483-2.83,1.959-4.314,1.061 c-1.484-0.897-1.96-2.829-1.062-4.313L72.658,109.86L72.658,109.86z"/></g></symbol>
  <symbol xmlns="http://www.w3.org/2000/svg" xmlns:xlink="http://www.w3.org/1999/xlink" version="1.1" id="pause-button-icon" x="0px" y="0px" viewBox="0 0 122.88 122.88" style="enable-background:new 0 0 122.88 122.88" xml:space="preserve"><g><path d="M61.44,0c16.97,0,32.33,6.88,43.44,18c11.12,11.12,18,26.48,18,43.44c0,16.97-6.88,32.33-18,43.44 c-11.12,11.12-26.48,18-43.44,18c-16.97,0-32.33-6.88-43.44-18C6.88,93.77,0,78.41,0,61.44C0,44.47,6.88,29.11,18,18 C29.11,6.88,44.47,0,61.44,0L61.44,0z M42.3,39.47h13.59v43.95l-13.59,0V39.47L42.3,39.47L42.3,39.47z M66.99,39.47h13.59v43.95 l-13.59,0V39.47L66.99,39.47L66.99,39.47z M97.42,25.46c-9.21-9.21-21.93-14.9-35.98-14.9c-14.05,0-26.78,5.7-35.98,14.9 c-9.21,9.21-14.9,21.93-14.9,35.98s5.7,26.78,14.9,35.98c9.21,9.21,21.93,14.9,35.98,14.9c14.05,0,26.78-5.7,35.98-14.9 c9.21-9.21,14.9-21.93,14.9-35.98S106.63,34.66,97.42,25.46L97.42,25.46z"/></g></symbol>
  <symbol version="1.1" id="reload-sync-icon" xmlns="http://www.w3.org/2000/svg" xmlns:xlink="http://www.w3.org/1999/xlink" x="0px" y="0px" viewBox="0 0 118.307 122.88" enable-background="new 0 0 118.307 122.88" xml:space="preserve"><g><path d="M10.03,35.673c2.245-10.496,7.201-19.176,14.246-25.362C32.504,3.086,43.498-0.674,56.271,0.1 c1.916,0.113,3.377,1.758,3.265,3.674c-0.113,1.916-1.757,3.378-3.673,3.265C44.988,6.379,35.71,9.509,28.848,15.535 c-6.483,5.693-10.883,14.028-12.512,24.258l0.639,0.264l10.389-7.172c1.425-0.986,3.38-0.63,4.367,0.795 c0.986,1.426,0.63,3.381-0.795,4.366l-16.557,11.43c-1.425,0.986-3.38,0.63-4.366-0.795c-0.062-0.089-0.118-0.18-0.169-0.272 L9.84,48.409L0.39,31.146c-0.836-1.52-0.282-3.431,1.238-4.267c1.52-0.836,3.43-0.282,4.266,1.238L10.03,35.673L10.03,35.673z M99.032,23.108l-0.206,0.159l1.016,12.583c0.142,1.728-1.145,3.243-2.872,3.384c-1.727,0.142-3.242-1.145-3.384-2.872 L91.967,16.31c-0.142-1.728,1.144-3.243,2.871-3.384c0.108-0.009,0.215-0.013,0.32-0.011l0.001-0.002l19.675,0.446 c1.734,0.036,3.112,1.471,3.076,3.206c-0.035,1.734-1.471,3.111-3.206,3.075l-9.65-0.219c3.769,4.437,6.799,9.422,9.01,14.762 c2.775,6.698,4.243,13.922,4.243,21.281c0,3.63-0.358,7.25-1.064,10.812c-0.7,3.535-1.755,7.021-3.153,10.409 c-0.729,1.773-2.757,2.62-4.53,1.891c-1.773-0.729-2.619-2.757-1.891-4.529c1.207-2.924,2.125-5.974,2.745-9.104 c0.616-3.104,0.928-6.279,0.928-9.478c0-6.476-1.279-12.804-3.698-18.643C105.583,31.85,102.684,27.207,99.032,23.108 L99.032,23.108z M72.658,109.86c-5.729,1.047-11.558,1.181-17.277,0.427c-7.172-0.943-14.162-3.288-20.552-6.978l-0.01-0.006 l-0.003,0.006c-3.14-1.813-6.097-3.934-8.832-6.328c-2.73-2.392-5.223-5.045-7.437-7.923c-1.172-1.519-0.892-3.699,0.625-4.871 s3.699-0.892,4.871,0.626c1.948,2.533,4.131,4.857,6.512,6.943c2.377,2.082,4.97,3.939,7.743,5.54l-0.003,0.006 c5.588,3.225,11.705,5.274,17.983,6.101c5.35,0.705,10.824,0.517,16.196-0.593l-0.035-0.264l-11.405-5.411 c-1.566-0.741-2.236-2.612-1.495-4.179c0.741-1.567,2.613-2.236,4.18-1.495l18.177,8.624c1.566,0.741,2.235,2.612,1.494,4.18 c-0.046,0.097-0.097,0.191-0.15,0.282l0.002,0.001l-10.225,16.816c-0.898,1.483-2.83,1.959-4.314,1.061 c-1.484-0.897-1.96-2.829-1.062-4.313L72.658,109.86L72.658,109.86z"/></g></symbol>
  <symbol version="1.1" id="circle-center-icon" xmlns="http://www.w3.org/2000/svg" xmlns:xlink="http://www.w3.org/1999/xlink" x="0px" y="0px" viewBox="0 0 122.88 122.88" enable-background="new 0 0 122.88 122.88" xml:space="preserve"><g><path fill-rule="evenodd" clip-rule="evenodd" d="M61.438,0c33.938,0,61.442,27.509,61.442,61.442S95.375,122.88,61.438,122.88 C27.509,122.88,0,95.376,0,61.442S27.509,0,61.438,0L61.438,0z M61.442,43.027c10.17,0,18.413,8.245,18.413,18.416 c0,10.17-8.243,18.413-18.413,18.413c-10.171,0-18.416-8.243-18.416-18.413C43.026,51.272,51.271,43.027,61.442,43.027 L61.442,43.027z M61.438,18.389c23.778,0,43.054,19.279,43.054,43.054s-19.275,43.049-43.054,43.049 c-23.77,0-43.049-19.274-43.049-43.049S37.668,18.389,61.438,18.389L61.438,18.389z"/></g></symbol>
  <symbol version="1.1" id="info-icon--old" xmlns="http://www.w3.org/2000/svg" xmlns:xlink="http://www.w3.org/1999/xlink" x="0px" y="0px" viewBox="0 0 122.88 122.88" style="enable-background:new 0 0 122.88 122.88" xml:space="preserve"><g><path d="M61.44,9.23c-1.85,0-3.64,0.08-5.35,0.25c-1.71,0.17-3.44,0.42-5.17,0.77c-1.72,0.34-3.39,0.77-5,1.26 c-1.59,0.49-3.16,1.07-4.7,1.72l-0.1,0.05l0,0c-1.63,0.7-3.18,1.45-4.67,2.25c-1.5,0.81-2.94,1.68-4.31,2.6 c-1.38,0.93-2.72,1.92-3.99,2.97c-1.27,1.05-2.5,2.16-3.68,3.35l-0.04,0.04c-1.18,1.18-2.29,2.4-3.33,3.66 c-1.05,1.28-2.04,2.61-2.97,3.99c-0.92,1.36-1.78,2.8-2.59,4.3c-0.8,1.49-1.56,3.05-2.26,4.67l-0.05,0.11l0,0l-0.07,0.14 c-0.63,1.5-1.19,3.04-1.67,4.61c-0.49,1.59-0.9,3.23-1.24,4.93c-0.35,1.73-0.6,3.45-0.77,5.17c-0.17,1.72-0.25,3.5-0.25,5.35 c0,1.85,0.08,3.64,0.25,5.35c0.17,1.71,0.42,3.44,0.77,5.17c0.35,1.72,0.77,3.39,1.27,5c0.49,1.57,1.05,3.13,1.7,4.66 c0.04,0.07,0.07,0.14,0.1,0.21c0.69,1.6,1.43,3.13,2.23,4.6c0.81,1.5,1.68,2.94,2.59,4.3c0.93,1.39,1.92,2.72,2.98,4 c1.02,1.24,2.11,2.44,3.26,3.59c0.07,0.06,0.13,0.12,0.19,0.19c1.16,1.16,2.36,2.24,3.59,3.26c1.28,1.05,2.61,2.04,3.99,2.97 c1.36,0.92,2.8,1.78,4.3,2.59c1.49,0.8,3.05,1.56,4.67,2.26l0.21,0.1c1.52,0.64,3.07,1.2,4.67,1.69c1.58,0.49,3.23,0.9,4.92,1.24 c1.73,0.35,3.45,0.6,5.17,0.77c1.72,0.17,3.5,0.25,5.35,0.25c1.85,0,3.64-0.08,5.35-0.25c1.71-0.17,3.44-0.42,5.17-0.77 c1.72-0.35,3.39-0.77,5-1.27c1.59-0.49,3.16-1.07,4.71-1.73l0.09-0.04l0-0.01c1.63-0.7,3.18-1.45,4.67-2.25 c1.5-0.81,2.94-1.68,4.31-2.6c1.38-0.93,2.72-1.92,3.99-2.97c1.25-1.03,2.45-2.12,3.62-3.29c0.06-0.06,0.11-0.12,0.18-0.18 c1.15-1.15,2.23-2.35,3.25-3.58c1.05-1.28,2.05-2.61,2.98-4c0.92-1.36,1.78-2.8,2.59-4.3c0.8-1.49,1.56-3.04,2.26-4.67l0.1-0.22 c0.64-1.51,1.2-3.06,1.69-4.65c0.49-1.59,0.9-3.23,1.24-4.93c0.35-1.73,0.6-3.45,0.77-5.17c0.17-1.72,0.25-3.5,0.25-5.35 c0-1.85-0.08-3.64-0.25-5.35c-0.17-1.71-0.42-3.44-0.77-5.17c-0.35-1.72-0.77-3.39-1.27-5c-0.49-1.59-1.07-3.16-1.73-4.71 l-0.04-0.09l0,0c-0.7-1.63-1.45-3.18-2.25-4.67c-0.81-1.5-1.68-2.94-2.59-4.3c-0.93-1.38-1.92-2.72-2.97-3.99 c-1.02-1.24-2.12-2.45-3.28-3.61c-0.07-0.06-0.13-0.12-0.18-0.18c-1.16-1.16-2.35-2.24-3.59-3.26c-1.28-1.05-2.61-2.04-3.99-2.97 c-1.37-0.92-2.8-1.78-4.3-2.59c-1.49-0.8-3.04-1.56-4.67-2.25l-0.19-0.09c-1.52-0.64-3.08-1.21-4.68-1.7 c-1.58-0.49-3.23-0.9-4.93-1.24c-1.73-0.35-3.45-0.6-5.17-0.77C65.08,9.31,63.29,9.23,61.44,9.23L61.44,9.23z M63.34,31.17 c2.19,0,3.91,0.63,5.16,1.88c1.24,1.25,1.87,2.96,1.87,5.17c0,2.24-1.07,4.22-3.21,5.97c-2.16,1.74-4.66,2.62-7.52,2.62 c-2.14,0-3.85-0.6-5.16-1.8c-1.31-1.22-1.96-2.79-1.96-4.75c0-2.47,1.07-4.59,3.19-6.4C57.82,32.06,60.37,31.17,63.34,31.17 L63.34,31.17L63.34,31.17z M75.55,91.71H47.33v-4.75h5.3V57.95h-5.3v-3.78h13.19c3.33,0,6.61-0.4,9.85-1.22v34.01h5.18L75.55,91.71 L75.55,91.71L75.55,91.71z M49.12,1.2c1.96-0.39,3.99-0.69,6.08-0.89C57.29,0.1,59.37,0,61.44,0c2.07,0,4.15,0.1,6.24,0.31 c2.09,0.2,4.12,0.5,6.08,0.89c1.94,0.39,3.88,0.88,5.82,1.48c1.88,0.58,3.74,1.26,5.58,2.04l0.19,0.07l0,0l0.06,0.02 c1.85,0.8,3.65,1.67,5.38,2.61c1.71,0.93,3.4,1.95,5.07,3.07c1.63,1.1,3.21,2.27,4.73,3.52c1.52,1.25,2.97,2.56,4.34,3.95 c1.38,1.38,2.7,2.83,3.95,4.34c1.25,1.52,2.42,3.09,3.52,4.73c1.09,1.63,2.11,3.32,3.06,5.06l0,0l0.01,0 c0.94,1.74,1.82,3.54,2.61,5.39c0.02,0.05,0.04,0.1,0.06,0.15c0.78,1.83,1.46,3.7,2.05,5.6c0.61,1.96,1.11,3.92,1.5,5.89 c0.39,1.96,0.69,3.99,0.89,6.08c0.2,2.09,0.3,4.17,0.3,6.24c0,2.07-0.1,4.15-0.31,6.24c-0.2,2.09-0.5,4.12-0.89,6.08 c-0.39,1.94-0.88,3.88-1.48,5.82c-0.58,1.89-1.27,3.76-2.05,5.62l-0.04,0.09l0,0l-0.05,0.11c-0.8,1.85-1.67,3.65-2.61,5.38 c-0.93,1.71-1.95,3.4-3.07,5.07c-1.1,1.63-2.27,3.21-3.52,4.73c-1.25,1.52-2.56,2.96-3.95,4.34c-1.38,1.38-2.83,2.7-4.35,3.95 c-1.52,1.25-3.09,2.42-4.72,3.51c-1.63,1.09-3.32,2.11-5.06,3.06c-1.78,0.96-3.57,1.84-5.39,2.62c-0.05,0.02-0.1,0.04-0.16,0.06 c-1.83,0.78-3.7,1.46-5.6,2.05c-1.96,0.61-3.92,1.11-5.88,1.5c-1.96,0.39-3.99,0.69-6.08,0.89c-2.09,0.2-4.17,0.3-6.24,0.3 s-4.15-0.1-6.24-0.3c-2.09-0.2-4.12-0.5-6.08-0.89c-1.94-0.39-3.88-0.88-5.82-1.48c-1.89-0.58-3.76-1.27-5.61-2.05l-0.2-0.08l0,0 c-1.85-0.8-3.65-1.67-5.38-2.61c-1.71-0.93-3.4-1.95-5.07-3.07c-1.63-1.09-3.21-2.27-4.72-3.51c-1.52-1.25-2.97-2.57-4.35-3.95 c-1.38-1.38-2.7-2.83-3.95-4.34c-1.25-1.52-2.42-3.1-3.52-4.73c-1.09-1.63-2.11-3.32-3.06-5.06c-0.97-1.78-1.84-3.58-2.62-5.4 c-0.02-0.05-0.04-0.1-0.06-0.15c-0.78-1.83-1.46-3.7-2.05-5.6c-0.61-1.96-1.11-3.93-1.5-5.89c-0.39-1.96-0.69-3.99-0.89-6.08 C0.1,65.59,0,63.51,0,61.44c0-2.07,0.1-4.15,0.31-6.24c0.2-2.09,0.5-4.12,0.89-6.08c0.39-1.94,0.88-3.88,1.48-5.82 c0.58-1.88,1.26-3.74,2.04-5.59l0.09-0.23l0,0c0.8-1.85,1.67-3.65,2.61-5.38c0.93-1.71,1.95-3.4,3.07-5.07 c1.1-1.63,2.27-3.21,3.52-4.73c1.25-1.52,2.56-2.96,3.95-4.34c1.38-1.38,2.83-2.7,4.34-3.95c1.52-1.25,3.09-2.42,4.73-3.52 c1.67-1.12,3.36-2.14,5.07-3.07l0.13-0.06c1.73-0.94,3.48-1.78,5.26-2.55c0.05-0.02,0.1-0.04,0.15-0.06 c1.83-0.78,3.7-1.46,5.6-2.05C45.19,2.09,47.15,1.59,49.12,1.2L49.12,1.2z"/></g></symbol>
  <symbol id="info-icon" xmlns="http://www.w3.org/2000/svg" shape-rendering="geometricPrecision" text-rendering="geometricPrecision" image-rendering="optimizeQuality" fill-rule="evenodd" clip-rule="evenodd" viewBox="0 0 512 512"><path fill-rule="nonzero" d="M256 0c70.69 0 134.7 28.66 181.02 74.98C483.34 121.31 512 185.31 512 256c0 70.69-28.66 134.7-74.98 181.02C390.7 483.34 326.69 512 256 512c-70.69 0-134.7-28.66-181.02-74.98C28.66 390.7 0 326.69 0 256c0-70.69 28.66-134.69 74.98-181.02C121.3 28.66 185.31 0 256 0zm17.75 342.25h29.15v29.32h-93.79v-29.32h28.76v-92.34h-28.76v-29.32h64.64v121.66zm-27.94-150.37c-7.08-.05-13.12-2.53-18.2-7.56-5.08-5.01-7.56-11.11-7.56-18.25 0-7.01 2.48-13.06 7.56-18.08 5.08-5.02 11.12-7.55 18.2-7.55 6.95 0 12.99 2.53 18.08 7.55 5.13 5.02 7.67 11.07 7.67 18.08 0 4.72-1.2 9.07-3.56 12.94-2.36 3.93-5.45 7.07-9.31 9.37-3.87 2.3-8.17 3.45-12.88 3.5zm171.9-97.59C376.33 52.92 319.15 27.32 256 27.32c-63.15 0-120.33 25.6-161.71 66.97C52.92 135.68 27.32 192.85 27.32 256c0 63.15 25.6 120.33 66.97 161.71 41.38 41.37 98.56 66.97 161.71 66.97 63.15 0 120.33-25.6 161.71-66.97 41.37-41.38 66.97-98.56 66.97-161.71 0-63.15-25.6-120.32-66.97-161.71z"/></symbol>
  <symbol version="1.1" id="split-icon" xmlns="http://www.w3.org/2000/svg" xmlns:xlink="http://www.w3.org/1999/xlink" x="0px" y="0px" viewBox="0 0 122.88 101.61" style="enable-background:new 0 0 122.88 101.61" xml:space="preserve"><g><path d="M15.28,46.33h30V4.44c0-2.45,1.99-4.44,4.44-4.44c2.45,0,4.44,1.99,4.44,4.44v92.72c0,2.45-1.99,4.44-4.44,4.44 c-2.45,0-4.44-1.99-4.44-4.44V55.21H15.07l15.15,15.28c1.72,1.73,1.72,4.54-0.02,6.26c-1.73,1.72-4.54,1.72-6.26-0.02L1.29,53.89 l0,0l-0.01-0.01c-0.05-0.05-0.09-0.09-0.13-0.14l-0.01-0.01l-0.06-0.07l-0.02-0.02l-0.05-0.06l-0.02-0.03l-0.02-0.02l-0.05-0.07 l0,0L0.87,53.4l-0.02-0.02l-0.01-0.02l-0.05-0.07l-0.01-0.02l-0.05-0.07l0,0l-0.04-0.07L0.66,53.1l-0.01-0.02l-0.04-0.07 l-0.01-0.02l-0.02-0.03l-0.04-0.06l0,0L0.5,52.82l-0.01-0.02l-0.04-0.08l0,0l-0.04-0.08L0.4,52.62l-0.03-0.06l-0.01-0.03L0.35,52.5 l-0.03-0.08L0.31,52.4l-0.03-0.08L0.27,52.3l-0.03-0.08l0-0.01c-0.02-0.06-0.04-0.13-0.06-0.19l0-0.01l-0.02-0.08l-0.01-0.02 l-0.01-0.02l-0.02-0.08l-0.02-0.1l0-0.01l-0.02-0.1l0-0.01l-0.01-0.07L0.06,51.5l0-0.02l-0.01-0.08l0-0.02l-0.01-0.08l0,0 L0.02,51.2l0-0.01l0-0.02l-0.01-0.08l0-0.01C0.01,51,0,50.93,0,50.87l0-0.01l0-0.09v-0.02l0-0.08l0-0.02l0-0.02l0-0.08l0-0.02 l0.01-0.08l0,0l0.01-0.09l0-0.01c0.01-0.1,0.02-0.21,0.04-0.31l0.02-0.09l0-0.02c0.02-0.1,0.04-0.2,0.07-0.3l0,0l0.02-0.08 l0.01-0.03l0.01-0.02l0.02-0.08l0.01-0.02l0.03-0.08l0.01-0.02l0.03-0.08l0-0.01c0.04-0.1,0.08-0.19,0.12-0.28l0.01-0.01 c0.03-0.06,0.06-0.12,0.09-0.17l0.01-0.02l0.01-0.02l0.04-0.07l0.01-0.02l0.04-0.07c0.03-0.05,0.06-0.11,0.1-0.16l0.02-0.03 l0.01-0.02l0.05-0.07l0-0.01c0.04-0.06,0.08-0.11,0.12-0.16l0.01-0.01L1,47.97v0l0.07-0.08l0.01-0.01l0.04-0.05l0.05-0.05l0,0 l0.06-0.06l0.02-0.02l0.06-0.06l0,0l0.01-0.01L23.97,25.4c1.74-1.71,4.55-1.69,6.26,0.05c1.71,1.74,1.69,4.55-0.05,6.26 L15.28,46.33L15.28,46.33z M67.86,4.44C67.86,1.99,69.85,0,72.3,0c2.45,0,4.44,1.99,4.44,4.44v41.89h30.86L92.7,31.72 c-1.74-1.71-1.77-4.52-0.05-6.26c1.71-1.74,4.52-1.77,6.26-0.05l22.65,22.21l0.01,0.01l0,0l0.06,0.06l0.02,0.02l0.06,0.06l0,0 l0.05,0.05l0.04,0.05l0.01,0.01l0.07,0.08v0l0.07,0.08l0.01,0.01c0.04,0.05,0.08,0.11,0.12,0.16l0,0.01l0.05,0.07l0.01,0.02 l0.02,0.03c0.03,0.05,0.07,0.11,0.1,0.16l0.04,0.07l0.01,0.02l0.04,0.07l0.01,0.02l0.01,0.02c0.03,0.06,0.06,0.12,0.09,0.17 l0.01,0.01c0.04,0.09,0.08,0.19,0.12,0.28l0,0.01l0.03,0.08l0.01,0.02l0.03,0.08l0.01,0.02l0.02,0.08l0.01,0.02l0.01,0.03 l0.02,0.08l0,0c0.03,0.1,0.05,0.2,0.07,0.3l0,0.02l0.02,0.09c0.02,0.1,0.03,0.21,0.04,0.31l0,0.01l0.01,0.09l0,0l0.01,0.08l0,0.02 l0,0.08l0,0.02l0,0.02l0,0.08v0.02l0,0.09l0,0.01c0,0.07,0,0.13-0.01,0.2l0,0.01l-0.01,0.08l0,0.02l0,0.01l-0.01,0.09l0,0 l-0.01,0.08l0,0.02l-0.01,0.08l0,0.02l-0.01,0.03l-0.01,0.07l0,0.01l-0.02,0.1l0,0.01l-0.02,0.1l-0.02,0.08l-0.01,0.02l-0.01,0.02 l-0.02,0.08l0,0.01c-0.02,0.06-0.04,0.13-0.06,0.19l0,0.01l-0.03,0.08l-0.01,0.02l-0.03,0.08l-0.01,0.02l-0.03,0.08l-0.01,0.02 l-0.01,0.03l-0.03,0.06l-0.01,0.02l-0.04,0.08l0,0l-0.04,0.08l-0.01,0.02l-0.04,0.07l0,0l-0.04,0.06l-0.02,0.03l-0.01,0.02 l-0.04,0.07l-0.01,0.02l-0.01,0.02l-0.04,0.07l0,0l-0.05,0.07l-0.01,0.02l-0.05,0.07l-0.01,0.02l-0.02,0.02l-0.05,0.06l0,0 l-0.05,0.07l-0.02,0.02l-0.02,0.03l-0.05,0.06l-0.02,0.02l-0.06,0.07l-0.01,0.01c-0.04,0.05-0.09,0.1-0.13,0.14l-0.01,0.01l0,0 L98.94,76.73c-1.72,1.73-4.53,1.74-6.26,0.02c-1.73-1.72-1.74-4.53-0.02-6.26l15.15-15.28H76.74v41.96c0,2.45-1.99,4.44-4.44,4.44 c-2.45,0-4.44-1.99-4.44-4.44V4.44L67.86,4.44z M122.16,48.35c0.03,0.05,0.07,0.11,0.1,0.16L122.16,48.35L122.16,48.35z"/></g></symbol>
  <symbol id="trash-icon" xmlns="http://www.w3.org/2000/svg" viewBox="0 0 110.61 122.88"><path d="M39.27,58.64a4.74,4.74,0,1,1,9.47,0V93.72a4.74,4.74,0,1,1-9.47,0V58.64Zm63.6-19.86L98,103a22.29,22.29,0,0,1-6.33,14.1,19.41,19.41,0,0,1-13.88,5.78h-45a19.4,19.4,0,0,1-13.86-5.78l0,0A22.31,22.31,0,0,1,12.59,103L7.74,38.78H0V25c0-3.32,1.63-4.58,4.84-4.58H27.58V10.79A10.82,10.82,0,0,1,38.37,0H72.24A10.82,10.82,0,0,1,83,10.79v9.62h23.35a6.19,6.19,0,0,1,1,.06A3.86,3.86,0,0,1,110.59,24c0,.2,0,.38,0,.57V38.78Zm-9.5.17H17.24L22,102.3a12.82,12.82,0,0,0,3.57,8.1l0,0a10,10,0,0,0,7.19,3h45a10.06,10.06,0,0,0,7.19-3,12.8,12.8,0,0,0,3.59-8.1L93.37,39ZM71,20.41V12.05H39.64v8.36ZM61.87,58.64a4.74,4.74,0,1,1,9.47,0V93.72a4.74,4.74,0,1,1-9.47,0V58.64Z"/></symbol>
  <symbol id="lemon-dot-icon-old" viewBox="0 0 829 829" fill="none" xmlns="http://www.w3.org/2000/svg">
    <path d="M807.147 414.28C807.147 631.253 631.253 807.146 414.28 807.146C197.32 807.146 21.4268 631.253 21.4268 414.28C21.4268 197.306 197.32 21.4131 414.28 21.4131C631.253 21.4131 807.147 197.306 807.147 414.28Z" fill="#E0B707"/>
    <path d="M414.28 42.84C209.467 42.84 42.84 209.467 42.84 414.28C42.84 619.093 209.467 785.733 414.28 785.733C619.107 785.733 785.733 619.093 785.733 414.28C785.733 209.467 619.107 42.84 414.28 42.84ZM414.28 828.56C303.627 828.56 199.587 785.467 121.347 707.227C43.0934 628.973 0 524.933 0 414.28C0 303.627 43.0934 199.587 121.347 121.347C199.587 43.0935 303.627 0.000183105 414.28 0.000183105C524.947 0.000183105 628.973 43.0935 707.227 121.347C785.48 199.587 828.573 303.627 828.573 414.28C828.573 524.933 785.48 628.973 707.227 707.227C628.973 785.467 524.947 828.56 414.28 828.56Z" fill="black"/>
    <path d="M730.467 414.28C730.467 588.907 588.907 730.467 414.28 730.467C239.667 730.467 98.1064 588.907 98.1064 414.28C98.1064 239.653 239.667 98.1066 414.28 98.1066C588.907 98.1066 730.467 239.653 730.467 414.28Z" fill="#FFDD4D"/>
    <path d="M729.467 439.333C715.641 613.4 563.307 743.307 389.24 729.467C250.827 718.467 140.347 619.92 107.827 492.493C154.894 569.293 236.774 623.293 333.44 630.973C493.934 643.72 634.374 523.947 647.134 363.454C654.107 275.734 621.48 193.987 564.254 135.827C671.174 193.493 739.707 310.453 729.467 439.333Z" fill="#F9D021"/>
    <path d="M135.547 435.613H329C334.613 435.613 339.667 439 341.814 444.173C341.84 444.24 341.867 444.293 341.893 444.346C344.053 449.546 342.867 455.533 338.893 459.506L202.187 596.2C196.254 602.146 186.48 601.466 181.32 594.826C149.68 554.066 128.467 504.826 121.747 451.146C120.707 442.893 127.227 435.613 135.547 435.613ZM693.027 392.946H499.573C493.96 392.946 488.907 389.573 486.76 384.387C486.733 384.333 486.707 384.266 486.68 384.213C484.52 379.013 485.707 373.04 489.68 369.053L626.387 232.36C632.32 226.413 642.093 227.107 647.24 233.733C678.893 274.493 700.107 323.733 706.827 377.426C707.867 385.68 701.347 392.946 693.027 392.946ZM486.68 444.346C486.707 444.293 486.733 444.24 486.76 444.173C488.907 439 493.96 435.613 499.573 435.613H693.027C701.347 435.613 707.867 442.893 706.827 451.146C700.107 504.826 678.893 554.066 647.24 594.826C642.093 601.466 632.32 602.146 626.387 596.2L489.68 459.506C485.707 455.533 484.52 449.546 486.68 444.346ZM444.187 486.746C444.24 486.733 444.293 486.706 444.36 486.68C449.547 484.52 455.533 485.693 459.507 489.68L596.214 626.373C602.16 632.32 601.467 642.08 594.827 647.24C554.08 678.893 504.827 700.093 451.147 706.826C442.894 707.853 435.614 701.346 435.614 693.013V499.573C435.614 493.96 439 488.893 444.187 486.746ZM384.214 486.68C384.28 486.706 384.333 486.733 384.387 486.746C389.573 488.893 392.947 493.96 392.947 499.573V693.013C392.947 701.346 385.68 707.853 377.427 706.826C323.733 700.093 274.494 678.893 233.747 647.24C227.107 642.08 226.413 632.32 232.36 626.373L369.067 489.68C373.04 485.693 379.027 484.52 384.214 486.68ZM341.893 384.213C341.867 384.266 341.84 384.333 341.814 384.387C339.667 389.573 334.613 392.946 329 392.946H135.547C127.227 392.946 120.707 385.68 121.747 377.426C128.467 323.733 149.68 274.493 181.32 233.733C186.48 227.107 196.254 226.413 202.187 232.36L338.893 369.053C342.867 373.04 344.053 379.013 341.893 384.213ZM384.387 341.813C384.333 341.84 384.28 341.853 384.214 341.88C379.027 344.04 373.04 342.866 369.067 338.893L232.36 202.187C226.413 196.24 227.107 186.48 233.747 181.32C274.494 149.667 323.733 128.467 377.427 121.733C385.68 120.707 392.947 127.226 392.947 135.546V328.987C392.947 334.6 389.573 339.666 384.387 341.813ZM444.36 341.88C444.293 341.853 444.24 341.84 444.187 341.813C439 339.666 435.614 334.6 435.614 328.987V135.546C435.614 127.226 442.894 120.707 451.147 121.733C504.827 128.467 554.08 149.667 594.827 181.32C601.467 186.48 602.147 196.24 596.214 202.187L459.507 338.893C455.533 342.866 449.547 344.04 444.36 341.88ZM652.947 175.626C589.2 111.88 504.44 76.773 414.28 76.773C324.134 76.773 239.373 111.88 175.627 175.626C111.88 239.373 76.7734 324.133 76.7734 414.28C76.7734 504.44 111.88 589.186 175.627 652.946C239.373 716.693 324.134 751.8 414.28 751.8C504.44 751.8 589.2 716.693 652.947 652.946C716.694 589.186 751.8 504.44 751.8 414.28C751.8 324.133 716.694 239.373 652.947 175.626Z" fill="#FFF5C4"/>
  </symbol>
  <symbol viewBox="0 0 936 1444" fill="none" id="lemon-dot-icon" xmlns="http://www.w3.org/2000/svg">
    <path d="M498.743 260.75L474.306 259.163C457.219 258.057 444.144 243.177 445.25 226.083L457.047 43.6967C458.152 26.6167 473.036 13.5366 490.122 14.6433L514.559 16.23C531.646 17.3367 544.722 32.2167 543.616 49.2967L531.819 231.683C530.714 248.777 515.83 261.857 498.743 260.75Z" fill="#5E3A1C"/>
    <path d="M475.993 33.6569C473.042 36.6035 471.286 40.4568 471.018 44.6035L459.221 226.99C458.611 236.417 465.783 244.59 475.21 245.19L499.647 246.777C509.074 247.39 517.238 240.217 517.847 230.79L529.646 48.4035C529.939 43.8701 528.427 39.4704 525.391 36.017C522.357 32.5504 518.189 30.4968 513.655 30.2035L489.218 28.617C484.687 28.3237 480.289 29.8302 476.833 32.8701C476.542 33.1235 476.262 33.3902 475.993 33.6569ZM532.67 261.564C523.802 270.43 511.31 275.59 497.839 274.724L473.402 273.137C461.407 272.363 450.41 266.937 442.438 257.857C434.466 248.79 430.503 237.177 431.279 225.19L443.077 42.8035C444.685 17.9635 466.193 -0.929871 491.027 0.670135L515.463 2.25687C527.459 3.03021 538.455 8.45682 546.427 17.5368C554.399 26.6035 558.363 38.2168 557.587 50.2035L545.789 232.59C545.054 243.964 540.151 254.07 532.67 261.564Z" fill="black"/>
    <path d="M14.4139 26.2301C8.23927 25.6701 75.8552 203.084 216.462 293.417C281.641 335.284 363.422 303.937 380.33 296.497C412.173 282.483 431.558 249.47 428.09 214.857C426.411 198.083 425.426 133.084 345.874 79.6169C199.869 -18.5298 10.9646 21.0701 14.4139 26.2301Z" fill="#64BC4B"/>
    <path d="M428.094 214.844C431.563 249.47 412.17 282.47 380.331 296.497C367.527 302.137 317.587 321.457 265.809 312.364C284.815 308.03 299.241 302.27 305.311 299.59C337.15 285.577 356.534 252.577 353.065 217.964C351.397 201.19 350.406 136.204 270.853 82.7236C199.274 34.6036 117.382 19.5905 52.8848 17.4171C115.138 9.69714 241.474 9.44382 345.871 79.6171C425.426 133.097 426.415 198.084 428.094 214.844Z" fill="#3F9123"/>
    <path d="M33.3714 41.9637C40.646 60.2304 55.4167 91.9636 78.8834 128.99C107.838 174.697 156.523 238.27 224.029 281.644C285.413 321.07 365.733 287.63 374.689 283.684C401.173 272.03 417.033 244.924 414.159 216.244C414.059 215.23 413.959 214.057 413.847 212.737C412.126 192.284 407.553 137.937 338.065 91.2304C268.522 44.4971 189.733 31.4036 135.883 28.657C91.7621 26.4036 55.8527 30.5236 36.5194 34.0702L30.6821 35.0702L33.3714 41.9637ZM414.907 289.537C406.757 297.697 397.014 304.444 385.971 309.31C369.061 316.75 281.049 351.55 208.895 305.204C134.533 257.43 81.9407 187.404 50.9167 137.07C31.9901 106.377 19.5794 80.7371 12.5034 64.6304C-2.25796 31.0437 -0.459274 25.7904 0.852726 21.9504C1.16473 21.0438 1.55806 20.177 2.0234 19.377C2.7034 18.097 3.53271 16.8971 4.66871 15.8171C6.77538 13.7104 11.7087 8.79044 47.338 4.01712C65.2234 1.6171 94.0834 -0.969604 130.01 0.363708C189.426 2.56372 276.463 16.0969 353.685 68.0036C434.326 122.204 439.914 188.577 441.749 210.39C441.846 211.55 441.933 212.577 442.019 213.457C444.906 242.257 434.514 269.937 414.907 289.537Z" fill="black"/>
    <path d="M194.677 141.017C194.677 141.017 331.563 245.284 362.842 245.684C394.122 246.07 360.827 206.324 360.827 206.324C360.827 206.324 226.355 163.644 194.677 141.017Z" fill="#3F9123"/>
    <path d="M913.778 816.59C910.192 595.843 797.558 408.577 640.85 332.643C613.096 319.203 589.661 298.523 572.269 273.043C550.624 241.35 513.129 221.737 472.098 224.817C435.59 227.563 404.534 247.657 386.39 276.403C370.202 302.057 347.929 323.297 321.029 337.323C166.309 417.99 59.3331 609.163 62.9278 830.417C66.5144 1051.16 179.146 1238.43 335.854 1314.36C363.61 1327.8 387.045 1348.5 404.436 1373.96C426.082 1405.66 463.576 1425.27 504.606 1422.19C541.114 1419.44 572.172 1399.36 590.314 1370.6C606.504 1344.95 628.777 1323.71 655.676 1309.7C810.396 1229.02 917.373 1037.84 913.778 816.59Z" fill="#F4D13B"/>
    <path d="M913.782 816.59C917.374 1037.84 810.394 1229.02 655.67 1309.7C628.771 1323.71 606.502 1344.95 590.314 1370.6C572.174 1399.35 541.108 1419.44 504.612 1422.19C476.13 1424.32 449.374 1415.54 428.434 1399.38C455.624 1392.2 478.383 1373.24 492.639 1347.84C507.827 1320.75 528.748 1298.36 554.044 1283.59C699.538 1198.64 799.872 996.817 796.072 763.017C793.235 588.164 732.763 433.097 640.48 332.457C640.603 332.524 640.735 332.59 640.858 332.657C797.562 408.577 910.19 595.83 913.782 816.59Z" fill="#DCB51F"/>
    <path d="M599.881 1324.62C613.509 1310.98 628.987 1299.55 645.813 1290.78C799.013 1210.9 895.827 1024.91 892.447 816.937H892.446C889.078 609.564 786.669 427.004 631.547 351.844C600.939 337.017 574.349 313.923 554.651 285.07C536.597 258.63 505.578 243.697 473.697 246.097C445.038 248.244 419.791 263.443 404.433 287.79C385.913 317.137 360.482 340.804 330.891 356.23C177.691 436.11 80.8793 622.097 84.2566 830.07C87.626 1037.44 190.037 1220 345.157 1295.16C375.763 1309.99 402.354 1333.08 422.054 1361.94C440.109 1388.38 471.127 1403.31 503.007 1400.91C531.665 1398.76 556.909 1383.56 572.273 1359.22C580.262 1346.56 589.538 1334.95 599.881 1324.62ZM772.019 1249.86C739.943 1281.94 704.182 1308.46 665.538 1328.6C642.625 1340.55 622.853 1359.02 608.358 1381.99C586.041 1417.35 547.854 1440.34 506.205 1443.46C459.182 1446.99 413.435 1424.98 386.818 1385.99C371.31 1363.28 350.469 1345.15 326.551 1333.56C244.642 1293.87 174.418 1226.02 123.471 1137.32C71.7033 1047.2 43.39 941.19 41.5966 830.764C39.798 720.084 64.7606 613.004 113.789 521.11C162.043 430.657 230.295 360.563 311.166 318.403C334.078 306.457 353.85 287.99 368.35 265.017C390.658 229.657 428.847 206.67 470.501 203.55C517.523 200.017 563.27 222.03 589.886 261.017C605.395 283.724 626.234 301.857 650.153 313.457C732.062 353.137 802.287 420.99 853.233 509.684C904.999 599.804 933.31 705.817 935.107 816.244C936.906 926.937 911.943 1034 862.917 1125.9C837.719 1173.12 807.07 1214.8 772.019 1249.86Z" fill="black"/>
    <path d="M830.045 849.07C848.611 867.644 848.611 897.75 830.045 916.31C811.478 934.884 781.375 934.884 762.809 916.31C744.242 897.75 744.242 867.644 762.809 849.07C781.375 830.51 811.478 830.51 830.045 849.07Z" fill="#DCB51F"/>
    <path d="M784.359 613.75C802.926 632.324 802.926 662.417 784.359 680.99C765.793 699.55 735.69 699.55 717.123 680.99C698.557 662.417 698.557 632.324 717.123 613.75C735.69 595.19 765.793 595.19 784.359 613.75Z" fill="#DCB51F"/>
    <path d="M757.637 1107.67C776.203 1126.24 776.203 1156.35 757.637 1174.91C739.07 1193.48 708.967 1193.48 690.401 1174.91C671.834 1156.35 671.834 1126.24 690.401 1107.67C708.967 1089.11 739.07 1089.11 757.637 1107.67Z" fill="#DCB51F"/>
    <path d="M412.407 1121.9C424.794 1134.28 424.794 1154.36 412.407 1166.75C400.02 1179.14 379.938 1179.14 367.55 1166.75C355.163 1154.36 355.163 1134.28 367.55 1121.9C379.938 1109.51 400.02 1109.51 412.407 1121.9Z" fill="#DCB51F"/>
    <path d="M621.557 912.75C633.697 924.883 633.697 944.563 621.557 956.71C609.417 968.843 589.735 968.843 577.595 956.71C565.455 944.563 565.455 924.883 577.595 912.75C589.735 900.603 609.417 900.603 621.557 912.75Z" fill="#DCB51F"/>
    <path d="M567.034 449.87C579.174 462.003 579.174 481.697 567.034 493.83C554.895 505.977 535.213 505.977 523.073 493.83C510.933 481.697 510.933 462.003 523.073 449.87C535.213 437.723 554.895 437.723 567.034 449.87Z" fill="#DCB51F"/>
    <path d="M206.331 942.564L206.301 942.577C194.598 947.137 181.474 940.67 178.049 928.577C172.158 907.804 164.305 873.564 161.133 830.337C156.611 768.697 161.226 676.897 206.186 580.23C211.309 569.217 224.611 564.723 235.385 570.323C245.514 575.603 249.665 587.923 244.85 598.27C204.034 686.083 199.642 769.564 203.573 825.644C206.406 866.044 213.813 898.137 219.121 916.91C222.109 927.484 216.567 938.577 206.331 942.564Z" fill="white"/>
    <path d="M254.478 535.537L254.466 535.523C243.944 529.137 240.978 515.19 248.028 505.097C253.296 497.55 260.154 488.137 268.474 477.55C275.944 468.057 289.793 466.603 299.03 474.403H299.036C307.82 481.817 309.145 494.857 302.045 503.897C294.294 513.764 287.904 522.537 283.037 529.51C276.592 538.737 264.1 541.363 254.478 535.537Z" fill="white"/>
  </symbol>


</svg>